<?xml version="1.0" encoding="utf-8"?>
<!-- Generator: Adobe Illustrator 25.2.0, SVG Export Plug-In . SVG Version: 6.00 Build 0)  -->
<svg version="1.1" xmlns="http://www.w3.org/2000/svg" xmlns:xlink="http://www.w3.org/1999/xlink" x="0px" y="0px"
	 viewBox="0 0 1722 561.7" style="enable-background:new 0 0 1722 561.7;" xml:space="preserve">
<style type="text/css">
	.st0{fill:url(#SVGID_1_);}
	.st1{fill:none;}
	.st2{fill:none;stroke:url(#SVGID_2_);stroke-width:10;stroke-miterlimit:10;}
	.st3{enable-background:new    ;}
	.st4{fill:url(#SVGID_3_);}
	.st5{fill:url(#SVGID_4_);}
	.st6{fill:url(#SVGID_5_);}
	.st7{fill:url(#SVGID_6_);}
	.st8{fill:url(#SVGID_7_);}
	.st9{fill:#187CA2;}
	.st10{fill:url(#SVGID_8_);}
	.st11{fill:url(#SVGID_9_);}
	.st12{fill:url(#SVGID_10_);}
	.st13{fill:url(#SVGID_11_);}
	.st14{fill:url(#SVGID_12_);}
	.st15{fill:url(#SVGID_13_);}
	.st16{fill:url(#SVGID_14_);}
	.st17{fill:url(#SVGID_15_);}
	.st18{fill:url(#SVGID_16_);}
	.st19{fill:url(#SVGID_17_);}
	.st20{fill:url(#SVGID_18_);}
	.st21{fill:url(#SVGID_19_);}
	.st22{fill:url(#SVGID_20_);}
	.st23{fill:url(#SVGID_21_);}
	.st24{fill:url(#SVGID_22_);}
	.st25{fill:url(#SVGID_23_);}
	.st26{fill:url(#SVGID_24_);}
	.st27{fill:url(#SVGID_25_);}
	.st28{fill:url(#SVGID_26_);}
	.st29{fill:url(#SVGID_27_);}
	.st30{fill:url(#SVGID_28_);}
	.st31{fill:url(#SVGID_29_);}
	.st32{fill:url(#SVGID_30_);}
	.st33{fill:url(#SVGID_31_);}
	.st34{fill:url(#SVGID_32_);}
	.st35{fill:url(#SVGID_33_);}
	.st36{fill:url(#SVGID_34_);}
	.st37{fill:url(#SVGID_35_);}
	.st38{fill:url(#SVGID_36_);}
	.st39{fill:url(#SVGID_37_);}
	.st40{fill:url(#SVGID_38_);}
	.st41{fill:url(#SVGID_39_);}
	.st42{fill:url(#SVGID_40_);}
	.st43{fill:url(#SVGID_41_);}
	.st44{fill:url(#SVGID_42_);}
	.st45{fill:url(#SVGID_43_);}
	.st46{fill:url(#SVGID_44_);}
</style>
<g id="Layer_1">
	<g id="Layer_2_1_">
		
			<linearGradient id="SVGID_1_" gradientUnits="userSpaceOnUse" x1="455.7068" y1="455.2068" x2="108.0931" y2="107.5931" gradientTransform="matrix(1 0 0 -1 0 564)">
			<stop  offset="0" style="stop-color:#1793C1"/>
			<stop  offset="1" style="stop-color:#14807D"/>
		</linearGradient>
		<circle class="st0" cx="281.9" cy="282.6" r="245.8"/>
		<circle class="st1" cx="350.3" cy="206.1" r="213"/>
	</g>
	<g id="Layer_3">
		
			<linearGradient id="SVGID_2_" gradientUnits="userSpaceOnUse" x1="476.5665" y1="476.0665" x2="87.2335" y2="86.7335" gradientTransform="matrix(1 0 0 -1 0 564)">
			<stop  offset="0" style="stop-color:#1793C1"/>
			<stop  offset="1" style="stop-color:#14807D"/>
		</linearGradient>
		<circle class="st2" cx="281.9" cy="282.6" r="270.3"/>
	</g>
	<g id="Layer_4">
		<g class="st3">
			
				<image style="overflow:visible;enable-background:new    ;" width="2317" height="2317" xlink:href="61FBC45.png"  transform="matrix(0.2392 0 0 0.2392 73.2179 -48.9549)">
			</image>
		</g>
	</g>
	<g id="Layer_1_1_">
		<g>
			
				<linearGradient id="SVGID_3_" gradientUnits="userSpaceOnUse" x1="594.3" y1="-17.8" x2="594.3" y2="-17.8" gradientTransform="matrix(1 0 0 -1 0 564)">
				<stop  offset="0" style="stop-color:#0F193F"/>
				<stop  offset="1" style="stop-color:#125455"/>
			</linearGradient>
			<path class="st4" d="M594.3,581.8"/>
			
				<linearGradient id="SVGID_4_" gradientUnits="userSpaceOnUse" x1="415.5604" y1="395.1033" x2="150.1543" y2="129.6972" gradientTransform="matrix(1 0 0 -1 0 564)">
				<stop  offset="0" style="stop-color:#0F193F"/>
				<stop  offset="1" style="stop-color:#125455"/>
			</linearGradient>
			<path class="st5" d="M247.2,246.4c-4.4-1.3-8.8-2.9-13.3-3.8c-7.3-1.4-9.4-7.6-6.7-15.7c2.5-7.4,8.6-11.2,15.5-13.3
				c3.2-0.9,4-2.1,3.1-5.1c10.5,5.2,21.1,7,32.1,2.8c4-1.5,7.3-3.9,9.9-7.7c1.7-2.5,1.2-3.2-1-4.2c-4.6-2-8.7-4.8-11.5-9.1
				c-6.7-10.2-3.8-23.1,7-30c6.6-4.2,14.1-6.5,20.2-11.3c5.8-4.5,6.8-11,2.1-16.8c-2-2.4-4.3-4.6-6.7-6.7c-9.2-8.3-10.6-15.9-5-27.2
				c2.9-5.9,7-11.1,10.6-16.6c2-3,3.9-6,5.4-9.3c0.4,5.1-2.2,9.1-4.6,13.2c-3,5.1-6.4,10-8.2,15.7c-2.4,7.6,0.2,15.3,6.3,20.2
				c4.3,3.5,8.7,6.9,11.1,12.4c2.4,5.4,1.3,9.9-2.4,14c-6.4,7-15.1,10.4-23,15.2c-3.8,2.3-7.5,4.9-10.6,8.2
				c-6.8,7.3-2.6,21.4,7.1,23.6c3.3,0.7,2.2-2.5,2.8-4.3c2.9,1.2,4.6,5.3,8.2,4.4c5-1.3,9.3-4.2,12.5-8.4c2.7-3.5,5.3-7.2,8-10.7
				c4-5.2,9.4-8.3,15.7-9.6c9.8-2,13.9-9.5,17.1-17.6c1.7-4.3-0.8-8.1-4.5-10.3c-4.8-2.9-8.1-7.9-8.3-13.6c-0.2-4.4,1.1-7.1,3.8-9.8
				c2.9-2.9,7.2-5.4,5.4-10.5c-2.1-6-7.1-8.3-12.9-9.2c-0.5-0.1-1-0.2-1.8-0.4c3-2.8,5.9-0.6,8.4,0c4.2,1,7,4.2,9.5,7.5
				c1.4,1.9,2.1,3.7,0.2,6.2c-1.8,2.4-3,5.3-3.7,8.5c-2.6,11.1,3.9,18.5,14.6,14.7c6.7-2.4,10.6,0.2,14.4,4
				c9.3,9.3,15.9,20,15.4,33.9c-0.2,4.7-2,8.1-5.8,11.7c-0.3-2.8-0.1-5.2-1.6-6.9c-0.7-0.8-1.3-2.3-2.6-1.8
				c-1.2,0.4-2.1,1.6-2.1,3.1s-0.1,3.1,1,4.2c3.6,3.4,4.1,7.9,4.5,12.5c1.3,13.8-0.5,26.8-8.6,38.5c2.3-4.2,0.9-8.8,1.9-13.2
				c1-4.6-0.6-9.8-3.1-13.7c-1.8-2.8-5.8-1.2-8.2,1.1c-2.4,2.4-4.5,5.1-7.4,7.3c0-2.3,0-4.3-1.8-5c-1.3-0.6-3,0.5-3.8,1.7
				c-4.1,5.5-8.8,7.2-14.7,2.8c-1.1-0.8-1.3-0.2-2.1,0.7c-7,8.7-5.5,17.2,2.4,24.5c7.3,6.8,10.7,7.5,23.3,8.2
				c-1,2.5-3.8,1.7-5.2,3.1c-0.8,0.7-2.3,0.7-2.2,2.3c0.1,1.6,1.5,1.7,2.4,2.1c4,2,8.1,0.2,12.2,0.3c0.7,0,1.3,0.1,2.3,0.2
				c-1.1,3.1-4,3.1-6.1,4.2c-2.3,1.2-4.9,1.7-7.3,3.7c5.3,2.9,9.7,6.5,14.3,9.8c8.3,6,12.5,5.5,19.7-2.1c6-6.3,9.7-14.1,11.3-22.6
				c1.4-7.2-1.4-13.2-6.4-18.4c-4-4.2-6-9.1-3.6-14.9c2.3-5.6,6.5-8.6,12.3-9.2c2.9-0.3,6.3-0.5,8,2.4c1.3,2.3,2.7,5,1.1,8
				c-1,1.7-1.6,3.1-3.4,0.6c-2-2.9-4.7-5-8.3-2.4c-3.6,2.6-2.5,5.9-1,9.3c1.2,2.6,3.1,4.6,4.8,6.9c1.6,2.2,3,2.3,4.9,0.9
				c1.6-1.1,3-2.4,4.3-3.9c2.4-2.8,5-5.8,9.6-3.6c5.1,2.5,7.4,6.3,6.7,11.4c-0.3,2.3-1.9,3.8-3.6,4.3c-2.2,0.6-1.4-2.1-2.1-3.2
				c-2.1-3.7-3.6-3.9-6.2-0.5c-2,2.7-2,6-1,8.6c1.8,4.6,0,7.6-2.8,10.4c-3.1,3.1-3.6,6.8-3.5,11c0.4,9.6,4.6,13,13.8,10.9
				c1.1-0.2,2.2-1.4,3.1-0.1c0.8,1.1-0.2,2.2-0.7,3.2c-4.2,8.1-16.9,7.9-23-0.5c-2-2.7-3.7-5.7-4.5-9.5c-4.2,3.4-5.1,8.4-7.7,12.2
				c-4.1,5.9-3.1,11.3-0.9,17.7c2.7,7.7,1.5,15.7-2.4,23c-2.1,3.9-2,6.5,2.2,8.8c3.8,2.1,7.1,5,6.2,10.2c9.9-2.9,13.8-10.4,16-19.3
				c1.5-5.7,2.5-11.5,5.3-16.9c1.7-3.3,3.1-5.5,7.5-3.8c3.1,1.2,7-0.9,9.8,2.3c1.7,1.9,3.2,3-0.8,4.1c-3.8,1-7.6,2.3-10.3,5.5
				c-2.2,2.5-1.5,4,1.3,5.3c9.1,4.1,12.5,11.9,8.9,20.7c-1.6,3.8-4.5,5.9-9.2,6.6c4.1-4.8,7.1-9.1,5.8-15.5
				c-0.9-4.8-3.4-4.2-6.3-3.2s-4.9,3.4-6.4,6c-4.9,9-12,15-22,17.8c-4.2,1.2-8.3,3.3-11.8,6.2c-1.7,1.4-1.9,2.5-0.4,4.5
				c2.6,3.6,6.6,5.3,9.8,8.8c-4.8,1.8-9.1,2.7-13.2-0.5c-5.1-4-4.7-9.5-3.6-14.9c1.1-4.9,4.2-8.5,8.6-11c1.4-0.8,4.7-0.3,3.6-3.4
				c-1-2.6-2.6-5-6-5.1c-3.9-0.1-7,1.9-9.9,4c-10,7.2-20.3,13.6-32.2,17.2c-20.3,6-39.7,3.5-58.3-6.6c-10.3-5.6-20.2-12-31.4-15.8
				c-8.7-2.9-17.6-4.9-26.8-2.8c-1.4,0.3-3,0.7-4.3,1.3c-5.1,2.7-5.6,5.7-2,10.3c6.8,8.6,16.7,10,26.5,11.5
				c4.9,0.8,9.8,1.4,14.5,3.1c7.1,2.5,11.8,7.7,15.3,14.1c1.5,2.8,0.4,5.7-0.5,8.1c-1.6,4.4,0.5,5.7,4,6.5c4.2,1,8.4,1.8,12.5,3.2
				c10,3.5,14.1,10.3,12.4,20.9c-0.6,3.5,0.2,4.2,3.6,2.9c4.6-1.8,8.6-4.9,13.8-5.8c-2.6,6.8-1.6,8.3,5.2,8.5c1.1,0,2.4,0.2,3.4,0.7
				c7.4,4.2,13.7,9.5,17.1,17.5c2.4,5.7,0.2,9.2-5.6,8.9c5.6-2.8,4.6-5.8,1.7-9.9c-2.6-3.7-5.2-7.4-8.2-10.7
				c-4.8-5.3-10.9-6.2-17.6-4.2c-2.5,0.7-5.1,1.3-7.3,2.6c-6.9,3.9-14.1,5.6-22,4.7c-4.4-0.5-6.5,2.9-7.3,6.3
				c-0.8,3.7,1.8,5.5,5.5,5.8c1.1,0.1,2.8,0.5,3,1.9c0.2,1.2-1.2,1.9-2,2.6c-3.8,3.1-8.2,2.9-12.6,1.7c-2.5-0.7-4.5-2.2-4.9-5.1
				c-0.5-3.9,0.3-7.4,3.9-9.5c4.9-3,9.9-5.8,14.9-8.6c2.9-1.6,5.7-3.3,8.2-5.5c3.4-3.1,5-6.8,3.4-11.1c-1.7-4.5-5.4-7-10.2-7.4
				c-6-0.6-11.9,0.3-17.4,2.7c-11.9,5-24.3,9.1-35.2,16.3c-2.2,1.4-2.2,2.2-1.1,4.4c5.9,12.1,2.5,21-9.5,26c-1.1,0.5-1.8,1.2-3,0.2
				c-6.1-5.1-13.5-4.1-21.6-4.9c5.3,5.3,11.1,8.5,14.6,13.9c2.2,3.4,4.1,6.9,2.3,11c-1,2.3-2.7,4.1-5.9,3c-3.8-1.4-7.6-2.7-11.4-6.7
				c2.6,0.7,4.1,1,5.5,1.6c1.3,0.5,2.6,0.9,3.7-0.2c1-1.1,1-2.6,0.4-3.8c-2.2-4.5-5.4-8.2-10.2-10.3c-2-0.8-3.3,0.1-3.5,2.1
				c-0.2,1.6-0.3,3.4,0.1,5c1.2,4.7-1.8,6.1-5.3,7.2c-3.8,1.2-7.1,0.7-8.9-3.3c0.6-1.1,1.1-0.8,1.8-0.6c2.1,0.4,4.4,2.6,6.4,0.4
				c2.2-2.3,0.1-4.8-0.8-6.8c-2.4-5.1-6.6-8.5-11.6-11c-4.6-2.3-9.3-4.1-14.5-4.2c-5.3-0.2-5.6,0.2-3.3,5c0.3,0.6,0.5,1.2,0.8,1.9
				c-5.1,0.4-6-3.3-6.6-6.8c-0.6-3.8,2.1-4.9,5.2-6c5.9-2,11.5-0.3,17,1.3c5.3,1.5,10.6,2.9,16,0.7c6.6-2.7,12.6,0.9,18.9,1.4
				c3.9,0.3,7.4-0.1,10.8-1.9c4-2.2,4.1-7.4,0.4-9.9c-2.5-1.7-5.7-2.5-8.1-1.4c-8.5,3.9-17,1.3-25.4,0.7c-10.1-0.8-19.7-3.8-28-9.9
				c-7.3-5.4-11.7-12.8-13.8-21.6c-1.1-4.6,1.4-8.7,2.5-13c0.6-2.4,1.7-4.6,2.6-6.9c4.3-11.5,3.9-18.7-11.7-17.5
				c-4.1,0.3-8.3,0.3-12.3-1c-7.9-2.6-12.7-11.2-10.1-18.2c1.4-3.8,4.5-6,7.8-8c8.4-5,17.9-7.4,26.9-10.8c0.4-0.2,0.8-0.4,1.5-0.9
				c-2.3-2-4.3-3.9-6.9-5c-13.2-5.5-16.5-14.8-9.5-27.5c6.3-11.3,16.1-17,29-17.5c4.5-0.2,9,0,13.5-0.2c9.7-0.5,14.4-7.7,9.8-15.9
				c-2.4-4.3-2-7.4,0.2-11.2c2.7-4.7,4.7-9.7,8.2-14.8c0.4,5.8,0.9,10.9-1.7,15.7c-1.7,3-1.1,5.3,1.4,7.4c0.6,0.5,1.2,1.1,1.8,1.7
				c5.6,5.7,5,12.4-1.8,16.8c-7.3,4.6-15.8,6.1-24,8.5c-7.7,2.3-16.1,3.4-21.1,11c-2.2,3.4-3.3,6.8-1.4,10.6
				c1.8,3.8,5.4,3.2,8.6,3.2c3.8,0,7.6-0.4,10.7,2.6c6.8,6.4,5.1,19.9-3.2,24.3c-8,4.2-16.8,5.4-25.5,7.2c-2.9,0.6-5.8,1.3-8.5,2.4
				c-3.5,1.4-3.9,4.2-1.2,6.9c4.1,4.1,9.1,4.2,14.3,3.3c4.4-0.7,8.7-1.8,13.2-1.7c6.6,0.2,8.1,1.7,8.7,8.5
				c0.6,7.2-1.8,13.6-4.8,19.9c-4.3,9-6.3,18,0.7,26.8c3.3,4.1,7.2,6.7,12.5,6.9c20.8,0.8,39.3-5.2,55.6-18.1
				c6.7-5.3,8.5-11.8,4.8-17c-2.3-3.3-6.1-4.3-9.8-5.3c-7-1.8-14.5-2-20.5-6.7c-7.6-5.9-15.2-11.7-16.7-22.3
				c-1.3-9,7.2-14.7,13.9-17.7c15.5-7.1,30.8-2.8,46.1,0.8c12.1,2.9,23.9,7.4,37,7.5c-0.9,2.1-1.7,3.8,1.3,5.1
				c18.6,8,37.2,10.3,55.5-0.2c14.3-8.2,20.6-25.8,15.8-42c-0.5-1.7-0.9-3.6-1.7-5.1c-0.7-1.3-0.4-3.8-2.6-3.5
				c-1.9,0.2-3.2,1.6-3.8,3.5c-1,3.3-2,6.5-3.1,10.4c-3.7-3.4-4.1-7.7-5.3-11.6c-1.4-4.7-2-9.7-4.5-14c-2-3.4-3.2-3.3-5.5,0
				c-1.5,2.3-0.7,4.8-1.5,7.2c-1,3.3-2.5,3.8-5.3,2c-5.1-3.3-7.7-8.4-10.2-13.7c-2.5-5.3-4.6-10.9-7.7-15.9
				c-6.9-11.2-18-12-26.6-1.9c-3.2,3.8-5.9,7.8-5.9,13.2c-5-5.9-4.8-12,1.3-16.9c5.8-4.6,12.2-8.4,18.1-12.8
				c4.4-3.2,7.7-7.2,7.9-13.1c0.1-3.7-1.7-4.9-5-3.6c-4.4,1.7-8.4,4.2-11.5,7.7c-9.2,10.2-20.2,12.1-32.9,8.2
				c-4.4-1.3-8.9-2.6-13.6-2.3c-4.5,0.3-9.7,5.2-9.9,9.5c-0.1,2,1.5,2.8,3,3.6c3.9,2.1,7.9,4.1,11.9,6.1
				C248.3,246.3,248.3,247,247.2,246.4z"/>
			
				<linearGradient id="SVGID_5_" gradientUnits="userSpaceOnUse" x1="309.6953" y1="306.4047" x2="254.0453" y2="250.7547" gradientTransform="matrix(1 0 0 -1 0 564)">
				<stop  offset="0" style="stop-color:#0F193F"/>
				<stop  offset="1" style="stop-color:#125455"/>
			</linearGradient>
			<path class="st6" d="M299,261.7c-6.8-6.1-1.3-9.3,1.2-13.6c3.8,12,11.3,21.7,16,32.8c6.2,14.7-3.2,28.1-19.3,28.5
				c-8.1,0.2-15.5-2.6-23.1-4.5c-8.4-2.2-16.7-4-25.2-0.5c-1.3,0.5-2.5,0.5-3.7-0.3c5-5.4,16.4-7.3,24.7-3.5
				c5,2.3,14.4-1.9,16.4-7.1c0.7-1.7-0.4-1.8-1.6-2.1c-4.3-1.2-8.8-1.4-13.2-1.9c-5.4-0.6-10.5-1.9-13.9-6.5c-1.1-1.5-2-1.5-3.7-1.1
				c-5.5,1.4-10.8,3-15,7.2c-1,1-2.1,1.6-4,1.2c1.4-4.3,3-8.4,5.9-12c2.3-2.8,5.1-4,8.8-3.3c7.1,1.4,14.2,2.9,21.3,4.2
				c7,1.3,13.5-0.3,19.2-4.5c3.9-2.8,5.1-7.1,5.1-11.8C294.7,261.2,294.5,257.1,299,261.7z"/>
			
				<linearGradient id="SVGID_6_" gradientUnits="userSpaceOnUse" x1="209.1111" y1="350.9067" x2="202.4958" y2="344.2914" gradientTransform="matrix(1 0 0 -1 0 564)">
				<stop  offset="0" style="stop-color:#0F193F"/>
				<stop  offset="1" style="stop-color:#125455"/>
			</linearGradient>
			<path class="st7" d="M202.7,219.9c1.7-2.2,3.4-5,6.6-6.6C207,215.7,204.6,218,202.7,219.9z"/>
			
				<linearGradient id="SVGID_7_" gradientUnits="userSpaceOnUse" x1="250.6863" y1="317.0362" x2="249.2315" y2="315.5815" gradientTransform="matrix(1 0 0 -1 0 564)">
				<stop  offset="0" style="stop-color:#0F193F"/>
				<stop  offset="1" style="stop-color:#125455"/>
			</linearGradient>
			<path class="st8" d="M247.2,246.4c0.3-0.3,0.7-0.6,1-0.9c1.7,0.5,2.8,1.7,4.4,3.6C249.8,249.1,248.8,247.2,247.2,246.4z"/>
			<path class="st9" d="M338.2,183.4c3.1-6.9,7.9-11.8,16.1-14.5c-3.3,7.7-11,9.1-15,14.5C338.9,183.7,338.6,183.7,338.2,183.4z"/>
			
				<linearGradient id="SVGID_8_" gradientUnits="userSpaceOnUse" x1="339.3405" y1="380.5767" x2="337.4307" y2="378.6669" gradientTransform="matrix(1 0 0 -1 0 564)">
				<stop  offset="0" style="stop-color:#0F193F"/>
				<stop  offset="1" style="stop-color:#125455"/>
			</linearGradient>
			<path class="st10" d="M338.2,183.4c0.4,0,0.8,0,1.1,0.1c-0.1,1.1-0.7,2.5-1.5,2.2C336.8,185.2,337.2,184,338.2,183.4z"/>
		</g>
	</g>
</g>
<g id="Layer_2">
	<g>
		<g>
			<g>
				<linearGradient id="SVGID_9_" gradientUnits="userSpaceOnUse" x1="1250.5546" y1="637.7644" x2="1250.5546" y2="114.1045">
					<stop  offset="0.2832" style="stop-color:#17565C"/>
					<stop  offset="1" style="stop-color:#2090B5"/>
				</linearGradient>
				<path class="st11" d="M673.1,198.8c3.3,4.3,4.9,9.6,4.9,16c0,8.8-3.4,15.6-10.1,20.4c-6.8,4.8-16.6,7.2-29.6,7.2h-50.5V140.9
					h47.6c12,0,21.2,2.3,27.7,7c6.5,4.7,9.7,11.1,9.7,19.4c0,5-1.2,9.5-3.5,13.3c-2.3,3.9-5.5,6.9-9.6,9
					C665.4,191.4,669.8,194.5,673.1,198.8z M606.7,155.6v28h26.7c6.6,0,11.6-1.2,15.2-3.6c3.5-2.4,5.3-5.8,5.3-10.4
					c0-4.6-1.8-8.1-5.3-10.5c-3.5-2.4-8.6-3.6-15.2-3.6H606.7z M659,212.9c0-9.8-7.3-14.6-21.9-14.6h-30.5v29.3h30.5
					C651.7,227.6,659,222.7,659,212.9z"/>
				<linearGradient id="SVGID_10_" gradientUnits="userSpaceOnUse" x1="1250.5546" y1="637.7644" x2="1250.5546" y2="114.1045">
					<stop  offset="0.2832" style="stop-color:#17565C"/>
					<stop  offset="1" style="stop-color:#2090B5"/>
				</linearGradient>
				<path class="st12" d="M717.6,237.1c-8.3-4.5-14.8-10.7-19.6-18.7c-4.7-8-7.1-16.9-7.1-26.8s2.4-18.8,7.1-26.8
					c4.7-8,11.3-14.2,19.6-18.7c8.3-4.5,17.6-6.7,28-6.7c10.3,0,19.7,2.2,28,6.7c8.3,4.5,14.8,10.7,19.6,18.6
					c4.7,7.9,7.1,16.9,7.1,26.8c0,10-2.4,18.9-7.1,26.8c-4.7,7.9-11.3,14.1-19.6,18.6c-8.3,4.5-17.6,6.7-28,6.7
					C735.2,243.8,725.9,241.6,717.6,237.1z M763.9,222.7c5.4-3,9.7-7.3,12.8-12.8c3.1-5.5,4.6-11.6,4.6-18.3
					c0-6.8-1.5-12.9-4.6-18.3c-3.1-5.5-7.3-9.7-12.8-12.8c-5.4-3-11.5-4.6-18.3-4.6c-6.8,0-12.9,1.5-18.3,4.6
					c-5.4,3-9.7,7.3-12.8,12.8c-3.1,5.5-4.6,11.6-4.6,18.3c0,6.8,1.5,12.9,4.6,18.3c3.1,5.5,7.3,9.7,12.8,12.8
					c5.4,3,11.5,4.6,18.3,4.6C752.4,227.3,758.4,225.8,763.9,222.7z"/>
				<linearGradient id="SVGID_11_" gradientUnits="userSpaceOnUse" x1="1250.5546" y1="637.7644" x2="1250.5546" y2="114.1045">
					<stop  offset="0.2832" style="stop-color:#17565C"/>
					<stop  offset="1" style="stop-color:#2090B5"/>
				</linearGradient>
				<path class="st13" d="M839.7,237.1c-8.3-4.5-14.8-10.7-19.6-18.7c-4.7-8-7.1-16.9-7.1-26.8s2.4-18.8,7.1-26.8
					c4.7-8,11.3-14.2,19.6-18.7c8.3-4.5,17.6-6.7,28-6.7s19.7,2.2,28,6.7c8.3,4.5,14.8,10.7,19.6,18.6c4.7,7.9,7.1,16.9,7.1,26.8
					c0,10-2.4,18.9-7.1,26.8c-4.7,7.9-11.3,14.1-19.6,18.6c-8.3,4.5-17.6,6.7-28,6.7S848,241.6,839.7,237.1z M886,222.7
					c5.4-3,9.7-7.3,12.8-12.8c3.1-5.5,4.6-11.6,4.6-18.3c0-6.8-1.5-12.9-4.6-18.3c-3.1-5.5-7.3-9.7-12.8-12.8
					c-5.4-3-11.5-4.6-18.3-4.6c-6.8,0-12.9,1.5-18.3,4.6c-5.4,3-9.7,7.3-12.8,12.8c-3.1,5.5-4.6,11.6-4.6,18.3
					c0,6.8,1.5,12.9,4.6,18.3c3.1,5.5,7.3,9.7,12.8,12.8c5.4,3,11.5,4.6,18.3,4.6C874.4,227.3,880.5,225.8,886,222.7z"/>
				<linearGradient id="SVGID_12_" gradientUnits="userSpaceOnUse" x1="1250.5546" y1="637.7644" x2="1250.5546" y2="114.1045">
					<stop  offset="0.2832" style="stop-color:#17565C"/>
					<stop  offset="1" style="stop-color:#2090B5"/>
				</linearGradient>
				<path class="st14" d="M977.3,199.9l-16.1,16.5v26h-18.9V140.9h18.9v52.1l50.2-52.1h21.2l-42.6,45.4l45.2,56.1h-22L977.3,199.9z"
					/>
				<linearGradient id="SVGID_13_" gradientUnits="userSpaceOnUse" x1="1250.5546" y1="637.7644" x2="1250.5546" y2="114.1045">
					<stop  offset="0.2832" style="stop-color:#17565C"/>
					<stop  offset="1" style="stop-color:#2090B5"/>
				</linearGradient>
				<path class="st15" d="M1083,199.9l-16.1,16.5v26h-18.9V140.9h18.9v52.1l50.2-52.1h21.2l-42.6,45.4l45.2,56.1h-22L1083,199.9z"/>
				<linearGradient id="SVGID_14_" gradientUnits="userSpaceOnUse" x1="1250.5546" y1="637.7644" x2="1250.5546" y2="114.1045">
					<stop  offset="0.2832" style="stop-color:#17565C"/>
					<stop  offset="1" style="stop-color:#2090B5"/>
				</linearGradient>
				<path class="st16" d="M1229.9,226.5v15.8h-76.1V140.9h74.1v15.8h-55.2V183h49v15.5h-49v28H1229.9z"/>
				<linearGradient id="SVGID_15_" gradientUnits="userSpaceOnUse" x1="1250.5546" y1="637.7644" x2="1250.5546" y2="114.1045">
					<stop  offset="0.2832" style="stop-color:#17565C"/>
					<stop  offset="1" style="stop-color:#2090B5"/>
				</linearGradient>
				<path class="st17" d="M1327,226.5v15.8h-76.1V140.9h74.1v15.8h-55.2V183h49v15.5h-49v28H1327z"/>
				<linearGradient id="SVGID_16_" gradientUnits="userSpaceOnUse" x1="1250.5546" y1="637.7644" x2="1250.5546" y2="114.1045">
					<stop  offset="0.2832" style="stop-color:#17565C"/>
					<stop  offset="1" style="stop-color:#2090B5"/>
				</linearGradient>
				<path class="st18" d="M1412.8,145.2c6.5,2.9,11.5,7.1,15,12.5c3.5,5.4,5.2,11.8,5.2,19.3c0,7.3-1.7,13.8-5.2,19.2
					c-3.5,5.5-8.5,9.6-15,12.5c-6.5,2.9-14.2,4.4-23,4.4h-22.9v29.3h-18.9V140.9h41.8C1398.6,140.9,1406.3,142.3,1412.8,145.2z
					 M1407.7,191.9c4.3-3.5,6.4-8.5,6.4-14.9c0-6.5-2.1-11.5-6.4-14.9c-4.3-3.5-10.5-5.2-18.7-5.2h-22v40.3h22
					C1397.2,197.1,1403.4,195.4,1407.7,191.9z"/>
				<linearGradient id="SVGID_17_" gradientUnits="userSpaceOnUse" x1="1250.5546" y1="637.7644" x2="1250.5546" y2="114.1045">
					<stop  offset="0.2832" style="stop-color:#17565C"/>
					<stop  offset="1" style="stop-color:#2090B5"/>
				</linearGradient>
				<path class="st19" d="M1453.3,140.9h18.9v101.5h-18.9V140.9z"/>
				<linearGradient id="SVGID_18_" gradientUnits="userSpaceOnUse" x1="1250.5546" y1="637.7644" x2="1250.5546" y2="114.1045">
					<stop  offset="0.2832" style="stop-color:#17565C"/>
					<stop  offset="1" style="stop-color:#2090B5"/>
				</linearGradient>
				<path class="st20" d="M1589.8,140.9v101.5h-15.5l-56-68.7v68.7h-18.7V140.9h15.5l56,68.7v-68.7H1589.8z"/>
				<linearGradient id="SVGID_19_" gradientUnits="userSpaceOnUse" x1="1250.5546" y1="637.7644" x2="1250.5546" y2="114.1045">
					<stop  offset="0.2832" style="stop-color:#17565C"/>
					<stop  offset="1" style="stop-color:#2090B5"/>
				</linearGradient>
				<path class="st21" d="M1686.3,190.4h17.8v40.5c-5.2,4.2-11.3,7.3-18.3,9.6c-7,2.2-14.1,3.3-21.5,3.3c-10.3,0-19.7-2.2-28-6.7
					c-8.3-4.5-14.8-10.7-19.6-18.6c-4.7-7.9-7.1-16.9-7.1-26.8c0-10,2.4-18.9,7.1-26.8c4.7-7.9,11.3-14.1,19.6-18.6
					c8.4-4.5,17.8-6.7,28.2-6.7c8.5,0,16.2,1.4,23.2,4.2c7,2.8,12.8,6.9,17.5,12.3l-11.9,11.6c-7.7-7.7-17.1-11.6-28-11.6
					c-7.2,0-13.5,1.5-19.1,4.5c-5.6,3-9.9,7.2-13,12.6c-3.1,5.4-4.7,11.6-4.7,18.6c0,6.8,1.6,12.9,4.7,18.3c3.1,5.4,7.5,9.7,13,12.8
					c5.6,3.1,11.9,4.6,18.9,4.6c7.9,0,14.9-1.7,20.9-5.2V190.4z"/>
				<linearGradient id="SVGID_20_" gradientUnits="userSpaceOnUse" x1="1250.5546" y1="637.7644" x2="1250.5546" y2="114.1045">
					<stop  offset="0.2832" style="stop-color:#17565C"/>
					<stop  offset="1" style="stop-color:#2090B5"/>
				</linearGradient>
				<path class="st22" d="M586,289.9h38.2c9.3,0,17.6,1.8,24.9,5.4S662,304,666,310.7s6,14.3,6,22.9c0,8.7-2,16.3-6,22.9
					s-9.6,11.8-16.9,15.4s-15.5,5.4-24.9,5.4H586V289.9z M623.5,363.6c6.4,0,12.1-1.2,16.9-3.7c4.9-2.5,8.6-6,11.2-10.5
					c2.6-4.5,3.9-9.8,3.9-15.8s-1.3-11.3-3.9-15.8c-2.6-4.5-6.4-8-11.2-10.5c-4.9-2.5-10.5-3.7-16.9-3.7h-21.2v60H623.5z"/>
				<linearGradient id="SVGID_21_" gradientUnits="userSpaceOnUse" x1="1250.5546" y1="637.7644" x2="1250.5546" y2="114.1045">
					<stop  offset="0.2832" style="stop-color:#17565C"/>
					<stop  offset="1" style="stop-color:#2090B5"/>
				</linearGradient>
				<path class="st23" d="M746.5,377.4l-17.9-25.6c-0.8,0.1-1.9,0.1-3.4,0.1h-19.8v25.5h-16.2v-87.5h36c7.6,0,14.2,1.2,19.8,3.8
					s9.9,6.1,12.9,10.8c3,4.7,4.5,10.2,4.5,16.6c0,6.6-1.6,12.2-4.8,17c-3.2,4.8-7.8,8.3-13.8,10.6l20.1,28.8H746.5z M740.6,308.1
					c-3.7-3-9-4.5-16.1-4.5h-19v34.9h19c7.1,0,12.5-1.5,16.1-4.6c3.7-3,5.5-7.4,5.5-12.9C746.1,315.4,744.2,311.1,740.6,308.1z"/>
				<linearGradient id="SVGID_22_" gradientUnits="userSpaceOnUse" x1="1250.5546" y1="637.7644" x2="1250.5546" y2="114.1045">
					<stop  offset="0.2832" style="stop-color:#17565C"/>
					<stop  offset="1" style="stop-color:#2090B5"/>
				</linearGradient>
				<path class="st24" d="M837.3,357.1h-43.8l-8.6,20.2h-16.8l39.4-87.5h16l39.5,87.5h-17L837.3,357.1z M832,344.4l-16.5-38.2
					l-16.4,38.2H832z"/>
				<linearGradient id="SVGID_23_" gradientUnits="userSpaceOnUse" x1="1250.5546" y1="637.7644" x2="1250.5546" y2="114.1045">
					<stop  offset="0.2832" style="stop-color:#17565C"/>
					<stop  offset="1" style="stop-color:#2090B5"/>
				</linearGradient>
				<path class="st25" d="M934,332.6h15.4v34.9c-4.5,3.6-9.8,6.3-15.8,8.2s-12.2,2.9-18.5,2.9c-8.9,0-17-1.9-24.1-5.8
					c-7.2-3.9-12.8-9.2-16.9-16.1c-4.1-6.8-6.1-14.5-6.1-23.1c0-8.6,2-16.3,6.1-23.1c4.1-6.8,9.7-12.2,16.9-16.1
					c7.2-3.9,15.3-5.8,24.3-5.8c7.3,0,14,1.2,20,3.6c6,2.4,11,6,15.1,10.6l-10.2,10c-6.7-6.7-14.7-10-24.1-10
					c-6.2,0-11.6,1.3-16.4,3.9c-4.8,2.6-8.5,6.2-11.2,10.9c-2.7,4.7-4.1,10-4.1,16c0,5.8,1.4,11.1,4.1,15.8c2.7,4.7,6.5,8.3,11.2,11
					c4.8,2.7,10.2,4,16.3,4c6.8,0,12.8-1.5,18-4.5V332.6z"/>
				<linearGradient id="SVGID_24_" gradientUnits="userSpaceOnUse" x1="1250.5546" y1="637.7644" x2="1250.5546" y2="114.1045">
					<stop  offset="0.2832" style="stop-color:#17565C"/>
					<stop  offset="1" style="stop-color:#2090B5"/>
				</linearGradient>
				<path class="st26" d="M987.4,372.8c-7.2-3.9-12.8-9.2-16.9-16.1c-4.1-6.9-6.1-14.6-6.1-23.1s2-16.2,6.1-23.1
					c4.1-6.9,9.7-12.2,16.9-16.1c7.2-3.9,15.2-5.8,24.1-5.8c8.9,0,17,1.9,24.1,5.8c7.2,3.9,12.8,9.2,16.9,16.1
					c4.1,6.8,6.1,14.5,6.1,23.1c0,8.6-2,16.3-6.1,23.1c-4.1,6.8-9.7,12.2-16.9,16.1c-7.2,3.9-15.2,5.8-24.1,5.8
					C1002.7,378.6,994.6,376.7,987.4,372.8z M1027.3,360.4c4.7-2.6,8.3-6.3,11-11c2.7-4.7,4-10,4-15.8c0-5.8-1.3-11.1-4-15.8
					c-2.7-4.7-6.3-8.4-11-11c-4.7-2.6-9.9-3.9-15.8-3.9c-5.8,0-11.1,1.3-15.8,3.9c-4.7,2.6-8.3,6.3-11,11c-2.7,4.7-4,10-4,15.8
					c0,5.8,1.3,11.1,4,15.8c2.7,4.7,6.3,8.4,11,11c4.7,2.6,9.9,3.9,15.8,3.9C1017.4,364.4,1022.7,363,1027.3,360.4z"/>
				<linearGradient id="SVGID_25_" gradientUnits="userSpaceOnUse" x1="1250.5546" y1="637.7644" x2="1250.5546" y2="114.1045">
					<stop  offset="0.2832" style="stop-color:#17565C"/>
					<stop  offset="1" style="stop-color:#2090B5"/>
				</linearGradient>
				<path class="st27" d="M1153.7,289.9v87.5h-13.4l-48.2-59.2v59.2h-16.1v-87.5h13.4l48.2,59.2v-59.2H1153.7z"/>
				<linearGradient id="SVGID_26_" gradientUnits="userSpaceOnUse" x1="1250.5546" y1="637.7644" x2="1250.5546" y2="114.1045">
					<stop  offset="0.2832" style="stop-color:#17565C"/>
					<stop  offset="1" style="stop-color:#2090B5"/>
				</linearGradient>
				<path class="st28" d="M1229.4,303.6h-29v-13.8h74.2v13.8h-29v73.8h-16.2V303.6z"/>
				<linearGradient id="SVGID_27_" gradientUnits="userSpaceOnUse" x1="1250.5546" y1="637.7644" x2="1250.5546" y2="114.1045">
					<stop  offset="0.2832" style="stop-color:#17565C"/>
					<stop  offset="1" style="stop-color:#2090B5"/>
				</linearGradient>
				<path class="st29" d="M1343.7,357.1h-43.8l-8.6,20.2h-16.8l39.4-87.5h16l39.5,87.5h-17L1343.7,357.1z M1338.3,344.4l-16.5-38.2
					l-16.4,38.2H1338.3z"/>
				<linearGradient id="SVGID_28_" gradientUnits="userSpaceOnUse" x1="1250.5546" y1="637.7644" x2="1250.5546" y2="114.1045">
					<stop  offset="0.2832" style="stop-color:#17565C"/>
					<stop  offset="1" style="stop-color:#2090B5"/>
				</linearGradient>
				<path class="st30" d="M1435.7,377.4l-23.8-33.2l-23.5,33.2h-18.5l32.5-44.6l-30.8-42.9h18.4l22.4,31.1l22.1-31.1h17.6
					l-30.6,42.2l32.9,45.2H1435.7z"/>
				<linearGradient id="SVGID_29_" gradientUnits="userSpaceOnUse" x1="1250.5546" y1="637.7644" x2="1250.5546" y2="114.1045">
					<stop  offset="0.2832" style="stop-color:#17565C"/>
					<stop  offset="1" style="stop-color:#2090B5"/>
				</linearGradient>
				<path class="st31" d="M607.1,439.6h-21l-4.1,9.7h-8l18.9-42h7.7l19,42h-8.2L607.1,439.6z M604.5,433.5l-7.9-18.4l-7.9,18.4
					H604.5z"/>
				<linearGradient id="SVGID_30_" gradientUnits="userSpaceOnUse" x1="1250.5546" y1="637.7644" x2="1250.5546" y2="114.1045">
					<stop  offset="0.2832" style="stop-color:#17565C"/>
					<stop  offset="1" style="stop-color:#2090B5"/>
				</linearGradient>
				<path class="st32" d="M662.1,407.4v42h-6.4l-23.2-28.4v28.4h-7.7v-42h6.4l23.2,28.4v-28.4H662.1z"/>
				<linearGradient id="SVGID_31_" gradientUnits="userSpaceOnUse" x1="1250.5546" y1="637.7644" x2="1250.5546" y2="114.1045">
					<stop  offset="0.2832" style="stop-color:#17565C"/>
					<stop  offset="1" style="stop-color:#2090B5"/>
				</linearGradient>
				<path class="st33" d="M673.4,407.4h18.4c4.5,0,8.5,0.9,11.9,2.6c3.5,1.7,6.2,4.2,8.1,7.4c1.9,3.2,2.9,6.8,2.9,11s-1,7.8-2.9,11
					c-1.9,3.2-4.6,5.6-8.1,7.4c-3.5,1.7-7.5,2.6-11.9,2.6h-18.4V407.4z M691.4,442.8c3.1,0,5.8-0.6,8.1-1.8c2.3-1.2,4.1-2.9,5.4-5
					c1.3-2.2,1.9-4.7,1.9-7.6s-0.6-5.4-1.9-7.6c-1.3-2.2-3.1-3.9-5.4-5c-2.3-1.2-5.1-1.8-8.1-1.8h-10.2v28.8H691.4z"/>
				<linearGradient id="SVGID_32_" gradientUnits="userSpaceOnUse" x1="1250.5546" y1="637.7644" x2="1250.5546" y2="114.1045">
					<stop  offset="0.2832" style="stop-color:#17565C"/>
					<stop  offset="1" style="stop-color:#2090B5"/>
				</linearGradient>
				<path class="st34" d="M778.1,449.4l-0.1-27.8l-13.8,23h-3.5l-13.8-22.7v27.5h-7.4v-42h6.4l16.7,27.8l16.4-27.8h6.4l0.1,42H778.1
					z"/>
				<linearGradient id="SVGID_33_" gradientUnits="userSpaceOnUse" x1="1250.5546" y1="637.7644" x2="1250.5546" y2="114.1045">
					<stop  offset="0.2832" style="stop-color:#17565C"/>
					<stop  offset="1" style="stop-color:#2090B5"/>
				</linearGradient>
				<path class="st35" d="M824,439.6h-21l-4.1,9.7h-8l18.9-42h7.7l19,42h-8.2L824,439.6z M821.5,433.5l-7.9-18.4l-7.9,18.4H821.5z"
					/>
				<linearGradient id="SVGID_34_" gradientUnits="userSpaceOnUse" x1="1250.5546" y1="637.7644" x2="1250.5546" y2="114.1045">
					<stop  offset="0.2832" style="stop-color:#17565C"/>
					<stop  offset="1" style="stop-color:#2090B5"/>
				</linearGradient>
				<path class="st36" d="M879.1,407.4v42h-6.4l-23.2-28.4v28.4h-7.7v-42h6.4l23.2,28.4v-28.4H879.1z"/>
				<linearGradient id="SVGID_35_" gradientUnits="userSpaceOnUse" x1="1250.5546" y1="637.7644" x2="1250.5546" y2="114.1045">
					<stop  offset="0.2832" style="stop-color:#17565C"/>
					<stop  offset="1" style="stop-color:#2090B5"/>
				</linearGradient>
				<path class="st37" d="M917.6,439.6h-21l-4.1,9.7h-8l18.9-42h7.7l19,42h-8.2L917.6,439.6z M915,433.5l-7.9-18.4l-7.9,18.4H915z"
					/>
				<linearGradient id="SVGID_36_" gradientUnits="userSpaceOnUse" x1="1250.5546" y1="637.7644" x2="1250.5546" y2="114.1045">
					<stop  offset="0.2832" style="stop-color:#17565C"/>
					<stop  offset="1" style="stop-color:#2090B5"/>
				</linearGradient>
				<path class="st38" d="M964,427.9h7.4v16.7c-2.2,1.7-4.7,3-7.6,4c-2.9,0.9-5.8,1.4-8.9,1.4c-4.3,0-8.1-0.9-11.6-2.8
					c-3.4-1.9-6.1-4.4-8.1-7.7c-2-3.3-2.9-7-2.9-11.1c0-4.1,1-7.8,2.9-11.1c2-3.3,4.7-5.9,8.1-7.7c3.5-1.9,7.3-2.8,11.7-2.8
					c3.5,0,6.7,0.6,9.6,1.7c2.9,1.2,5.3,2.9,7.3,5.1l-4.9,4.8c-3.2-3.2-7.1-4.8-11.6-4.8c-3,0-5.6,0.6-7.9,1.9
					c-2.3,1.2-4.1,3-5.4,5.2c-1.3,2.2-2,4.8-2,7.7c0,2.8,0.6,5.3,2,7.6c1.3,2.2,3.1,4,5.4,5.3c2.3,1.3,4.9,1.9,7.8,1.9
					c3.3,0,6.2-0.7,8.6-2.2V427.9z"/>
				<linearGradient id="SVGID_37_" gradientUnits="userSpaceOnUse" x1="1250.5546" y1="637.7644" x2="1250.5546" y2="114.1045">
					<stop  offset="0.2832" style="stop-color:#17565C"/>
					<stop  offset="1" style="stop-color:#2090B5"/>
				</linearGradient>
				<path class="st39" d="M1013.1,442.8v6.5h-31.5v-42h30.7v6.5h-22.9v10.9h20.3v6.4h-20.3v11.6H1013.1z"/>
				<linearGradient id="SVGID_38_" gradientUnits="userSpaceOnUse" x1="1250.5546" y1="637.7644" x2="1250.5546" y2="114.1045">
					<stop  offset="0.2832" style="stop-color:#17565C"/>
					<stop  offset="1" style="stop-color:#2090B5"/>
				</linearGradient>
				<path class="st40" d="M1060.4,449.4l-0.1-27.8l-13.8,23h-3.5l-13.8-22.7v27.5h-7.4v-42h6.4l16.7,27.8l16.4-27.8h6.4l0.1,42
					H1060.4z"/>
				<linearGradient id="SVGID_39_" gradientUnits="userSpaceOnUse" x1="1250.5546" y1="637.7644" x2="1250.5546" y2="114.1045">
					<stop  offset="0.2832" style="stop-color:#17565C"/>
					<stop  offset="1" style="stop-color:#2090B5"/>
				</linearGradient>
				<path class="st41" d="M1110.6,442.8v6.5h-31.5v-42h30.7v6.5h-22.9v10.9h20.3v6.4h-20.3v11.6H1110.6z"/>
				<linearGradient id="SVGID_40_" gradientUnits="userSpaceOnUse" x1="1250.5546" y1="637.7644" x2="1250.5546" y2="114.1045">
					<stop  offset="0.2832" style="stop-color:#17565C"/>
					<stop  offset="1" style="stop-color:#2090B5"/>
				</linearGradient>
				<path class="st42" d="M1156.6,407.4v42h-6.4l-23.2-28.4v28.4h-7.7v-42h6.4l23.2,28.4v-28.4H1156.6z"/>
				<linearGradient id="SVGID_41_" gradientUnits="userSpaceOnUse" x1="1250.5546" y1="637.7644" x2="1250.5546" y2="114.1045">
					<stop  offset="0.2832" style="stop-color:#17565C"/>
					<stop  offset="1" style="stop-color:#2090B5"/>
				</linearGradient>
				<path class="st43" d="M1176.4,414h-13.9v-6.6h35.6v6.6h-13.9v35.4h-7.8V414z"/>
				<linearGradient id="SVGID_42_" gradientUnits="userSpaceOnUse" x1="1250.5546" y1="637.7644" x2="1250.5546" y2="114.1045">
					<stop  offset="0.2832" style="stop-color:#17565C"/>
					<stop  offset="1" style="stop-color:#2090B5"/>
				</linearGradient>
				<path class="st44" d="M1220.6,407.4h7.8v42h-7.8V407.4z"/>
				<linearGradient id="SVGID_43_" gradientUnits="userSpaceOnUse" x1="1250.5546" y1="637.7644" x2="1250.5546" y2="114.1045">
					<stop  offset="0.2832" style="stop-color:#17565C"/>
					<stop  offset="1" style="stop-color:#2090B5"/>
				</linearGradient>
				<path class="st45" d="M1277,407.4v42h-6.4l-23.2-28.4v28.4h-7.7v-42h6.4l23.2,28.4v-28.4H1277z"/>
				<linearGradient id="SVGID_44_" gradientUnits="userSpaceOnUse" x1="1250.5546" y1="637.7644" x2="1250.5546" y2="114.1045">
					<stop  offset="0.2832" style="stop-color:#17565C"/>
					<stop  offset="1" style="stop-color:#2090B5"/>
				</linearGradient>
				<path class="st46" d="M1296.3,447.2c-3.4-1.9-6.1-4.4-8-7.7c-1.9-3.3-2.9-7-2.9-11.1c0-4.1,1-7.8,2.9-11.1
					c2-3.3,4.7-5.9,8.1-7.7c3.4-1.9,7.2-2.8,11.5-2.8c3.4,0,6.6,0.6,9.4,1.8s5.2,2.9,7.2,5.2l-5,4.7c-3-3.3-6.8-4.9-11.2-4.9
					c-2.9,0-5.5,0.6-7.7,1.9c-2.3,1.3-4.1,3-5.3,5.2c-1.3,2.2-1.9,4.8-1.9,7.6c0,2.8,0.6,5.4,1.9,7.6c1.3,2.2,3.1,4,5.3,5.2
					c2.3,1.3,4.9,1.9,7.7,1.9c4.4,0,8.2-1.7,11.2-5l5,4.8c-2,2.3-4.4,4-7.2,5.2c-2.9,1.2-6,1.8-9.5,1.8
					C1303.5,450,1299.7,449,1296.3,447.2z"/>
			</g>
		</g>
	</g>
</g>
</svg>
